<svg xmlns="http://www.w3.org/2000/svg" viewBox="0 0 154.644 182.016"><g data-name="Layer 2"><g data-name="ART"><path d="M100.703 71.81c-7.723 31.807-38.478 56.083-63.213 50.965-23.099-4.78-42.392-42.925-34.669-74.733S38.717-4.231 65.747 2.332s42.68 37.67 34.956 69.477z" fill="#9569b8"/><ellipse cx="76.454" cy="22.41" rx="8.139" ry="12.223" transform="rotate(-48.117 76.454 22.41)" fill="#fff"/><path d="M42.418 106.742c-30.747-15.35-44.13-51.044-30.306-80.186A68.21 68.21 0 002.82 48.042c-7.724 31.808 11.57 69.953 34.67 74.733 11.165 2.31 23.553-1.384 34.5-9.042a65.733 65.733 0 01-29.573-6.99z" fill="#865da5"/><path d="M44.215 124.55a34.255 34.255 0 01-6.948-.697c-9.389-1.943-18.465-9.186-25.56-20.395C1.244 86.923-2.571 65.588 1.753 47.782c3.797-15.637 12.55-29.088 24.646-37.875C38.549 1.081 52.616-1.985 66.006 1.263c27.576 6.696 43.62 38.46 35.766 70.806-7.048 29.022-33.664 52.48-57.557 52.48zM55.47 2.2a47.228 47.228 0 00-27.779 9.487c-11.675 8.48-20.127 21.484-23.8 36.615-4.19 17.247-.481 37.93 9.676 53.98 6.772 10.7 15.348 17.595 24.146 19.416 24.337 5.034 54.438-19.334 61.92-50.148l1.07.26-1.07-.26c7.569-31.167-7.75-61.74-34.146-68.149a42.368 42.368 0 00-10.017-1.2z" fill="#3e4147"/><path d="M31.831 130.665a18.753 18.753 0 0016.15 3.015 4 4 0 002.653-4.997l-2.945-9.866a4.292 4.292 0 00-2.999-2.934 13.078 13.078 0 00-8.683.782 4.217 4.217 0 00-2.063 2l-3.435 6.88a4.043 4.043 0 001.322 5.12z" fill="#df642f"/><path d="M31.831 130.665a18.753 18.753 0 0016.15 3.015 4 4 0 002.653-4.997l-2.945-9.866a4.292 4.292 0 00-2.999-2.934 13.078 13.078 0 00-8.683.782 4.217 4.217 0 00-2.063 2l-3.435 6.88a4.043 4.043 0 001.322 5.12z" fill="#865da5"/><path d="M43.051 135.491a21.003 21.003 0 01-11.851-3.926 5.118 5.118 0 01-1.675-6.512l3.435-6.88a5.321 5.321 0 012.608-2.517 14.192 14.192 0 019.403-.837 5.425 5.425 0 013.772 3.683l2.945 9.867a5.2 5.2 0 01-.414 3.953 4.961 4.961 0 01-2.986 2.414 18.717 18.717 0 01-5.237.755zm-1.53-18.916a12.623 12.623 0 00-5.074 1.099 3.115 3.115 0 00-1.519 1.482l-3.434 6.88a2.93 2.93 0 00.967 3.727 17.535 17.535 0 0015.213 2.86 2.772 2.772 0 001.668-1.354 2.992 2.992 0 00.239-2.271l-2.946-9.866a3.211 3.211 0 00-2.226-2.186 11.296 11.296 0 00-2.888-.37z" fill="#3e4147"/><path d="M41.294 128.16c.527.1 1.016.219 1.47.331.218.063.447.118.632.18l.227.071.02.006.009.002.004.001.082-.149.047-.085c.052-.1-.243.477-.118.238l.008.004.015.009.032.017.124.068a4.997 4.997 0 011.349.911c.121.134.17.19-.026.483a4.466 4.466 0 01-.637.645 4.683 4.683 0 00-.731.696c-.1.14-.084.205-.084.205s.018.068.187.122a2.166 2.166 0 001.108-.033 3.371 3.371 0 001.168-.521 2.198 2.198 0 00.722-.869 2.074 2.074 0 00.147-.726 1.79 1.79 0 00-.185-.774 2.315 2.315 0 00-.385-.65 3.277 3.277 0 00-.479-.508c-.17-.142-.349-.3-.538-.44l-.596-.383a2.346 2.346 0 00-.357-.202c-.173-.08-.298-.125-.415-.167-.251-.096-.488-.164-.745-.246a18.38 18.38 0 00-1.632-.394 12.914 12.914 0 00-5.57-.039 4.951 4.951 0 00-2.64 1.448 1.793 1.793 0 00-.413.625 1.44 1.44 0 00-.115.378c-.021.172.035.212.035.212.004.03.222.086 1.146-.33a7.529 7.529 0 012.307-.504 17.742 17.742 0 014.827.369z" fill="#3e4147"/><path d="M153.544 182.016a1.098 1.098 0 01-.868-.423c-17.561-22.48-61.551-7.305-74.614-2.116a25.772 25.772 0 01-13.12 1.705c-12.036-1.73-20.39-11.762-24.161-29.011a106.185 106.185 0 01-2.095-25.415 1.1 1.1 0 012.195.13c-.028.482-2.527 48.252 24.374 52.118a23.56 23.56 0 0011.995-1.572c13.423-5.33 58.655-20.878 77.16 2.807a1.1 1.1 0 01-.866 1.777z" fill="#3e4147"/></g></g></svg>
